<svg width="48" height="50" viewBox="0 0 48 50" fill="none" xmlns="http://www.w3.org/2000/svg">
<g filter="url(#filter0_d_1_24)">
<circle cx="23.7031" cy="19" r="18.4629" fill="#FAFAFA"/>
<path d="M18.7031 12C18.7031 10.34 20.0431 9 21.7031 9H25.7031C27.3631 9 28.7031 10.34 28.7031 12C28.7031 12.55 28.2531 13 27.7031 13H19.7031C19.1531 13 18.7031 12.55 18.7031 12ZM29.4531 22C29.4531 22.41 29.1131 22.75 28.7031 22.75H27.7031V26C27.7031 27.66 26.3631 29 24.7031 29H22.7031C21.0431 29 19.7031 27.66 19.7031 26V22.75H18.7031C18.2931 22.75 17.9531 22.41 17.9531 22C17.9531 21.59 18.2931 21.25 18.7031 21.25H28.7031C29.1131 21.25 29.4531 21.59 29.4531 22Z" fill="#5AA65A"/>
<path d="M29.7031 14H17.7031C15.7031 14 14.7031 15 14.7031 17V22C14.7031 24 15.7031 25 17.7031 25H18.0781C18.4231 25 18.7031 24.72 18.7031 24.375C18.7031 24.03 18.4141 23.76 18.0911 23.638C17.758 23.5122 17.4709 23.2882 17.2677 22.9958C17.0645 22.7033 16.9548 22.3561 16.9531 22C16.9531 21.04 17.7431 20.25 18.7031 20.25H28.7031C29.6631 20.25 30.4531 21.04 30.4531 22C30.4514 22.3561 30.3417 22.7033 30.1385 22.9958C29.9354 23.2882 29.6483 23.5122 29.3151 23.638C28.9921 23.76 28.7031 24.03 28.7031 24.375C28.7031 24.72 28.9831 25 29.3281 25H29.7031C31.7031 25 32.7031 24 32.7031 22V17C32.7031 15 31.7031 14 29.7031 14ZM21.7031 18.75H18.7031C18.2931 18.75 17.9531 18.41 17.9531 18C17.9531 17.59 18.2931 17.25 18.7031 17.25H21.7031C22.1131 17.25 22.4531 17.59 22.4531 18C22.4531 18.41 22.1131 18.75 21.7031 18.75Z" fill="#5AA65A"/>
</g>
<defs>
<filter id="filter0_d_1_24" x="0.240234" y="0.537109" width="46.9258" height="48.9258" filterUnits="userSpaceOnUse" color-interpolation-filters="sRGB">
<feFlood flood-opacity="0" result="BackgroundImageFix"/>
<feColorMatrix in="SourceAlpha" type="matrix" values="0 0 0 0 0 0 0 0 0 0 0 0 0 0 0 0 0 0 127 0" result="hardAlpha"/>
<feOffset dy="7"/>
<feGaussianBlur stdDeviation="2.5"/>
<feComposite in2="hardAlpha" operator="out"/>
<feColorMatrix type="matrix" values="0 0 0 0 0.770833 0 0 0 0 0.214388 0 0 0 0 0.0289063 0 0 0 0.05 0"/>
<feBlend mode="normal" in2="BackgroundImageFix" result="effect1_dropShadow_1_24"/>
<feBlend mode="normal" in="SourceGraphic" in2="effect1_dropShadow_1_24" result="shape"/>
</filter>
</defs>
</svg>
