<svg width="48" height="50" viewBox="0 0 48 50" fill="none" xmlns="http://www.w3.org/2000/svg">
<g filter="url(#filter0_d_1_29)">
<circle cx="23.6289" cy="19" r="18.4629" fill="#FAFAFA"/>
<path d="M31.9889 19.732C31.6189 19.732 31.3089 19.452 31.2689 19.082C31.1507 17.9958 30.8002 16.9479 30.2412 16.0092C29.6821 15.0705 28.9276 14.2632 28.0289 13.642C27.9505 13.5877 27.8836 13.5184 27.8321 13.4382C27.7806 13.3579 27.7454 13.2683 27.7287 13.1744C27.712 13.0805 27.714 12.9843 27.7346 12.8912C27.7552 12.7981 27.7941 12.71 27.8489 12.632C28.0789 12.302 28.5289 12.222 28.8589 12.452C29.9275 13.194 30.8248 14.1563 31.4906 15.274C32.1564 16.3917 32.5752 17.6389 32.7189 18.932C32.7589 19.332 32.4689 19.692 32.0689 19.732H31.9889ZM15.3689 19.781H15.2989C15.1067 19.7608 14.9304 19.6652 14.8086 19.5153C14.6867 19.3653 14.6293 19.1732 14.6489 18.981C14.7821 17.6906 15.1902 16.4437 15.8456 15.3242C16.5011 14.2047 17.3888 13.2386 18.4489 12.491C18.7689 12.261 19.2289 12.341 19.4589 12.661C19.6889 12.991 19.6089 13.441 19.2889 13.671C18.3991 14.2991 17.654 15.1105 17.1038 16.0506C16.5535 16.9906 16.2109 18.0375 16.0989 19.121C16.0589 19.501 15.7389 19.781 15.3689 19.781ZM27.6189 28.1C26.3889 28.69 25.0689 28.99 23.6889 28.99C22.2489 28.99 20.8789 28.67 19.5989 28.02C19.5135 27.978 19.4374 27.9195 19.3749 27.8477C19.3124 27.776 19.2649 27.6925 19.2351 27.6022C19.2053 27.5119 19.1938 27.4165 19.2013 27.3217C19.2089 27.2268 19.2352 27.1345 19.2789 27.05C19.4489 26.69 19.8889 26.55 20.2489 26.72C20.8789 27.04 21.5489 27.26 22.2289 27.39C23.1489 27.57 24.0889 27.58 25.0089 27.42C25.6889 27.3 26.3589 27.09 26.9789 26.79C27.3489 26.62 27.7889 26.76 27.9489 27.13C28.1289 27.49 27.9889 27.93 27.6189 28.1ZM23.6789 9.01196C22.1289 9.01196 20.8589 10.272 20.8589 11.832C20.8589 13.392 22.1189 14.652 23.6789 14.652C25.2389 14.652 26.4989 13.392 26.4989 11.832C26.4989 10.272 25.2389 9.01196 23.6789 9.01196ZM16.6789 20.871C15.1289 20.871 13.8589 22.131 13.8589 23.691C13.8589 25.251 15.1189 26.511 16.6789 26.511C18.2389 26.511 19.4989 25.251 19.4989 23.691C19.4989 22.131 18.2289 20.871 16.6789 20.871ZM30.5789 20.871C29.0289 20.871 27.7589 22.131 27.7589 23.691C27.7589 25.251 29.0189 26.511 30.5789 26.511C32.1389 26.511 33.3989 25.251 33.3989 23.691C33.3989 22.131 32.1389 20.871 30.5789 20.871Z" fill="#5AA65A"/>
</g>
<defs>
<filter id="filter0_d_1_29" x="0.166016" y="0.537109" width="46.9258" height="48.9258" filterUnits="userSpaceOnUse" color-interpolation-filters="sRGB">
<feFlood flood-opacity="0" result="BackgroundImageFix"/>
<feColorMatrix in="SourceAlpha" type="matrix" values="0 0 0 0 0 0 0 0 0 0 0 0 0 0 0 0 0 0 127 0" result="hardAlpha"/>
<feOffset dy="7"/>
<feGaussianBlur stdDeviation="2.5"/>
<feComposite in2="hardAlpha" operator="out"/>
<feColorMatrix type="matrix" values="0 0 0 0 0.770833 0 0 0 0 0.214388 0 0 0 0 0.0289063 0 0 0 0.05 0"/>
<feBlend mode="normal" in2="BackgroundImageFix" result="effect1_dropShadow_1_29"/>
<feBlend mode="normal" in="SourceGraphic" in2="effect1_dropShadow_1_29" result="shape"/>
</filter>
</defs>
</svg>
