<svg width="25" height="24" viewBox="0 0 25 24" fill="none" xmlns="http://www.w3.org/2000/svg">
<g opacity="0.5">
<path d="M22.5918 22L20.5918 20M12.0918 21C13.3394 21 14.5747 20.7543 15.7273 20.2769C16.8799 19.7994 17.9272 19.0997 18.8093 18.2175C19.6915 17.3354 20.3912 16.2881 20.8687 15.1355C21.3461 13.9829 21.5918 12.7476 21.5918 11.5C21.5918 10.2524 21.3461 9.0171 20.8687 7.86451C20.3912 6.71191 19.6915 5.66464 18.8093 4.78249C17.9272 3.90033 16.8799 3.20056 15.7273 2.72314C14.5747 2.24572 13.3394 2 12.0918 2C9.57224 2 7.15588 3.00089 5.37428 4.78249C3.59269 6.56408 2.5918 8.98044 2.5918 11.5C2.5918 14.0196 3.59269 16.4359 5.37428 18.2175C7.15588 19.9991 9.57224 21 12.0918 21Z" stroke="#5AA65A" stroke-width="1.5" stroke-linecap="round" stroke-linejoin="round"/>
</g>
</svg>
